<?xml version="1.0" encoding="utf-8"?>
<!-- Generator: Adobe Illustrator 28.4.1, SVG Export Plug-In . SVG Version: 6.00 Build 0)  -->
<svg version="1.1" id="Camada_1" xmlns="http://www.w3.org/2000/svg" xmlns:xlink="http://www.w3.org/1999/xlink" x="0px" y="0px"
	 viewBox="0 0 192 192" style="enable-background:new 0 0 192 192;" xml:space="preserve">
<style type="text/css">
	.st0{display:none;fill:#2A1768;}
	.st1{display:none;fill:#AF271F;}
	.st2{fill:#2A1768;}
	.st3{fill:#AF271F;}
	.st4{fill:#AAA9A9;}
</style>
<path class="st0" d="M166.59,433.94c68.65-61.12,111.88-150.17,111.88-249.31c0-7.69-0.26-15.33-0.78-22.89
	c-40.98,130.2-159.62,225.97-301.61,233c-5.55,0.27-11.14,0.41-16.76,0.41c-91.11,0-173.68-36.51-233.9-95.7
	c15.83,84.44,63.46,157.67,129.99,206.79c55.39,40.88,123.87,65.05,197.99,65.05c149.54,0,276.1-98.35,318.54-233.9
	C318.34,391.09,246.54,426.62,166.59,433.94z"/>
<path class="st1" d="M166.59,410.77c68.65-61.12,111.88-150.17,111.88-249.31c0-7.69-0.26-15.33-0.78-22.89
	c-40.98,130.2-159.62,225.97-301.61,233c-5.55,0.27-11.14,0.41-16.76,0.41c-91.11,0-173.68-36.51-233.9-95.7
	c15.83,84.44,63.46,157.67,129.99,206.79c55.39,40.88,123.87,65.05,197.99,65.05c149.54,0,276.1-98.35,318.54-233.9
	C318.34,367.92,246.54,403.45,166.59,410.77z"/>
<g>
	<g>
		<path class="st2" d="M120.26,162.27c14.73-13.17,24.15-32.54,24.45-54.25c0.02-1.68-0.01-3.36-0.1-5.02
			c-9.07,28.39-34.49,48.99-64.59,50.09c-1.18,0.04-2.36,0.06-3.55,0.04c-19.3-0.28-36.68-8.54-49.26-21.69
			c3.1,18.54,12.97,34.73,26.91,45.69c11.61,9.12,26.04,14.63,41.74,14.86c31.68,0.47,58.78-20.68,68.18-50.23
			C152.54,153.36,137.22,160.91,120.26,162.27z"/>
	</g>
	<g>
		<path class="st3" d="M145.92,30.49c-18.4-6.6-39.33-5.35-57.67,5.23c-1.42,0.82-2.81,1.69-4.15,2.59
			c28.31-6.07,58.28,6.39,74.25,32.79c0.62,1.03,1.23,2.09,1.81,3.16c9.41,17.42,11.19,37.11,6.46,54.94
			c13.98-12.04,22.61-28.97,24.82-46.94c1.84-14.96-0.77-30.63-8.42-44.8C167.56,8.87,136.3-4.83,106.84,1.53
			C122.31,6.05,136.3,15.98,145.92,30.49z"/>
	</g>
	<g>
		<path class="st4" d="M22.7,73.41c3.67,19.77,15.18,37.89,33.22,49.01c1.4,0.86,2.82,1.67,4.25,2.42
			c-19.24-22.32-23.79-55.38-9.66-82.87c0.55-1.07,1.13-2.14,1.74-3.2c9.89-17.14,25.49-28.57,42.8-33.26
			c-17.08-6.5-35.57-5.75-51.73,1.25c-13.45,5.83-25.28,16-33.32,29.94c-16.23,28.13-12.07,62.97,7.99,86.16
			C14.03,106.76,15.35,89.27,22.7,73.41z"/>
	</g>
</g>
</svg>
