<?xml version="1.0" encoding="utf-8"?>
<!-- Generator: Adobe Illustrator 28.4.1, SVG Export Plug-In . SVG Version: 6.00 Build 0)  -->
<svg version="1.1" id="Camada_1" xmlns="http://www.w3.org/2000/svg" xmlns:xlink="http://www.w3.org/1999/xlink" x="0px" y="0px"
	 viewBox="0 0 32 32" style="enable-background:new 0 0 32 32;" xml:space="preserve">
<style type="text/css">
	.st0{display:none;fill:#2A1768;}
	.st1{display:none;fill:#AF271F;}
	.st2{fill:#2A1768;}
	.st3{fill:#AF271F;}
	.st4{fill:#AAA9A9;}
</style>
<path class="st0" d="M86.59,353.94c68.65-61.12,111.88-150.17,111.88-249.31c0-7.69-0.26-15.33-0.78-22.89
	c-40.98,130.2-159.62,225.97-301.61,233c-5.55,0.27-11.14,0.41-16.76,0.41c-91.11,0-173.68-36.51-233.9-95.7
	c15.83,84.44,63.46,157.67,129.99,206.79c55.39,40.88,123.87,65.05,197.99,65.05c149.54,0,276.1-98.35,318.54-233.9
	C238.34,311.09,166.54,346.62,86.59,353.94z"/>
<path class="st1" d="M86.59,330.77c68.65-61.12,111.88-150.17,111.88-249.31c0-7.69-0.26-15.33-0.78-22.89
	c-40.98,130.2-159.62,225.97-301.61,233c-5.55,0.27-11.14,0.41-16.76,0.41c-91.11,0-173.68-36.51-233.9-95.7
	c15.83,84.44,63.46,157.67,129.99,206.79c55.39,40.88,123.87,65.05,197.99,65.05c149.54,0,276.1-98.35,318.54-233.9
	C238.34,287.92,166.54,323.45,86.59,330.77z"/>
<g>
	<g>
		<path class="st2" d="M20.04,27.04c2.45-2.2,4.03-5.42,4.08-9.04c0-0.28,0-0.56-0.02-0.84c-1.51,4.73-5.75,8.16-10.77,8.35
			c-0.2,0.01-0.39,0.01-0.59,0.01c-3.22-0.05-6.11-1.42-8.21-3.61C5.05,25,6.7,27.69,9.02,29.52c1.94,1.52,4.34,2.44,6.96,2.48
			c5.28,0.08,9.8-3.45,11.36-8.37C25.42,25.56,22.87,26.82,20.04,27.04z"/>
	</g>
	<g>
		<path class="st3" d="M24.32,5.08c-3.07-1.1-6.56-0.89-9.61,0.87c-0.24,0.14-0.47,0.28-0.69,0.43c4.72-1.01,9.71,1.06,12.38,5.46
			c0.1,0.17,0.2,0.35,0.3,0.53c1.57,2.9,1.86,6.18,1.08,9.16c2.33-2.01,3.77-4.83,4.14-7.82c0.31-2.49-0.13-5.11-1.4-7.47
			c-2.57-4.77-7.79-7.05-12.69-5.99C20.39,1.01,22.72,2.66,24.32,5.08z"/>
	</g>
	<g>
		<path class="st4" d="M3.78,12.23c0.61,3.29,2.53,6.32,5.54,8.17c0.23,0.14,0.47,0.28,0.71,0.4C6.82,17.09,6.06,11.58,8.42,7
			c0.09-0.18,0.19-0.36,0.29-0.53c1.65-2.86,4.25-4.76,7.13-5.54c-2.85-1.08-5.93-0.96-8.62,0.21C4.98,2.1,3.01,3.79,1.67,6.12
			C-1.04,10.81-0.35,16.61,3,20.48C2.34,17.79,2.56,14.88,3.78,12.23z"/>
	</g>
</g>
</svg>
